<?xml version="1.0" encoding="UTF-8" standalone="no"?>
<svg width="1151px" height="219px" viewBox="0 0 1151 219" version="1.1" xmlns="http://www.w3.org/2000/svg" xmlns:xlink="http://www.w3.org/1999/xlink" xmlns:sketch="http://www.bohemiancoding.com/sketch/ns">
    <!-- Generator: Sketch 3.4.3 (16044) - http://www.bohemiancoding.com/sketch -->
    <title>kayla-jones</title>
    <desc>Created with Sketch.</desc>
    <defs></defs>
    <g id="Page-1" stroke="none" stroke-width="1" fill="none" fill-rule="evenodd" sketch:type="MSPage">
        <rect id="hi-lite" fill-opacity="0.623443161" fill="#EBCD9A" sketch:type="MSShapeGroup" x="0" y="106" width="1151" height="71"></rect>
        <g id="kayla-jones" sketch:type="MSArtboardGroup">
            <path d="M29,2 L66.5933278,2 L66.5933278,59.9957012 L95.0485851,2 L132.294898,2 L100.832174,56.7608812 C100.832174,56.7608812 137.153114,56.7608795 137.153112,163.163353 C137.153114,163.163361 95.048584,163.163361 95.0485851,163.163353 C121,56.7608795 76.7724442,99.2756582 76.7724442,99.2756582 L66.5933278,116.83611 L66.5933278,163.163353 L29,163.163353 L29,2 Z M161.839207,59.4180548 C174.408936,53.4875218 186.32301,50.5222998 197.581786,50.5222998 C205.910196,50.5222998 213.178166,51.9856562 219.385916,54.9124127 C225.593666,57.8391692 230.818122,62.5758225 235.059442,69.1225148 C239.300762,75.669207 241.42139,84.0257418 241.42139,94.1923697 L241.42139,131.161741 C241.42139,141.867508 243.619132,152.534606 248.014681,163.163353 L211.231056,163.163353 C209.842988,160.082557 208.724838,156.578203 207.876574,152.650188 C204.252174,156.963303 200.454322,160.217345 196.482904,162.412413 C192.511487,164.60748 188.328066,165.704997 183.932516,165.704997 C175.372762,165.704997 167.719223,162.296917 160.971668,155.480656 C154.224114,148.664394 150.850388,140.365623 150.850388,130.584095 C150.850388,108.556401 169.858927,95.1166282 207.876574,90.264374 C207.02831,86.2593387 204.946239,83.2556074 201.630298,81.2530897 C198.314357,79.2505721 193.764646,78.2493283 187.981029,78.2493283 C179.498389,78.2493283 170.784536,81.7151722 161.839207,88.646964 L161.839207,59.4180548 Z M207.876574,108.518001 C192.453593,109.904359 184.742219,115.642257 184.742219,125.731865 C184.742219,129.50584 185.898925,132.702118 188.212372,135.320795 C190.525819,137.939472 193.263357,139.248791 196.425068,139.248791 C200.126584,139.248791 202.960514,137.669907 204.926944,134.51209 C206.893374,131.354274 207.876574,127.387808 207.876574,122.612574 L207.876574,108.518001 Z M257.432101,53.0639441 L296.644834,53.0639441 L307.402309,126.309511 L317.465754,53.0639441 L355.406097,53.0639441 L325.909794,163.163353 C321.282899,180.261773 317.234428,191.891605 313.764257,198.053197 C310.294086,204.21479 305.879324,208.912934 300.519838,212.14777 C295.160352,215.382606 289.241872,217 282.76422,217 C276.363683,217 269.886129,215.459625 263.331362,212.378829 L263.331362,184.189683 C266.955762,186.50028 270.233097,187.655562 273.163463,187.655562 C277.713242,187.655562 280.990576,185.826366 282.995564,182.16792 C285.000551,178.509475 286.889838,172.829342 288.663481,165.127351 L257.432101,53.0639441 Z M374.308603,2 L411.092228,2 L411.092228,163.163353 L374.308603,163.163353 L374.308603,2 Z M445.494752,59.4180548 C458.064481,53.4875218 469.978555,50.5222998 481.237331,50.5222998 C489.565741,50.5222998 496.833711,51.9856562 503.041461,54.9124127 C509.249211,57.8391692 514.473667,62.5758225 518.714987,69.1225148 C522.956307,75.669207 525.076935,84.0257418 525.076935,94.1923697 L525.076935,131.161741 C525.076935,141.867508 527.274677,152.534606 531.670226,163.163353 L494.886601,163.163353 C493.498533,160.082557 492.380383,156.578203 491.532119,152.650188 C487.907719,156.963303 484.109867,160.217345 480.138449,162.412413 C476.167032,164.60748 471.983611,165.704997 467.588061,165.704997 C459.028307,165.704997 451.374768,162.296917 444.627213,155.480656 C437.879659,148.664394 434.505933,140.365623 434.505933,130.584095 C434.505933,108.556401 453.514472,95.1166282 491.532119,90.264374 C490.683855,86.2593387 488.601784,83.2556074 485.285843,81.2530897 C481.969902,79.2505721 477.420191,78.2493283 471.636574,78.2493283 C463.153934,78.2493283 454.440081,81.7151722 445.494752,88.646964 L445.494752,59.4180548 Z M491.532119,108.518001 C476.109139,109.904359 468.397764,115.642257 468.397764,125.731865 C468.397764,129.50584 469.55447,132.702118 471.867917,135.320795 C474.181364,137.939472 476.918902,139.248791 480.080613,139.248791 C483.782129,139.248791 486.616059,137.669907 488.582489,134.51209 C490.548919,131.354274 491.532119,127.387808 491.532119,122.612574 L491.532119,108.518001 Z M627.658142,2 L665.829828,2 L665.829828,122.843632 C665.829828,137.169335 663.09229,147.894197 657.617132,155.018538 C652.141974,162.14288 643.235336,165.704997 630.896952,165.704997 C624.187955,165.704997 617.748957,164.857791 611.579765,163.163353 L611.579765,130.815153 C614.201671,132.586611 616.476527,133.472327 618.4044,133.472327 C621.488996,133.472327 623.802408,132.3363 625.344706,130.064213 C626.887004,127.792125 627.658142,124.384046 627.658142,119.839871 L627.658142,2 Z M734.933886,50.5222998 C750.125522,50.5222998 762.579392,55.5285188 772.29587,65.5411069 C782.012348,75.5536951 786.870514,89.5711082 786.870514,107.593767 C786.870514,124.692187 782.205132,138.651836 772.874229,149.473133 C763.543325,160.29443 750.858114,165.704997 734.818214,165.704997 C718.778314,165.704997 706.285887,160.352194 697.340558,149.646427 C688.395229,138.940659 683.922632,125.30834 683.922632,108.74906 C683.922632,91.4966001 688.607292,77.479187 697.976753,66.6963998 C707.346214,55.9136126 719.665135,50.5222998 734.933886,50.5222998 L734.933886,50.5222998 Z M735.280901,78.7114455 C730.731122,78.7114455 727.29956,81.1567909 724.986113,86.0475551 C722.672666,90.9383193 721.515959,98.2743555 721.515959,108.055884 C721.515959,117.683373 722.653387,124.923135 724.928277,129.77539 C727.203167,134.627644 730.61545,137.053735 735.165229,137.053735 C739.792123,137.053735 743.242964,134.646899 745.517853,129.833154 C747.792743,125.01941 748.930171,117.798902 748.930171,108.171413 C748.930171,98.3128649 747.792743,90.9383193 745.517853,86.0475551 C743.242964,81.1567909 739.83068,78.7114455 735.280901,78.7114455 L735.280901,78.7114455 Z M845.332768,64.5013434 C848.571594,59.8031289 852.253775,56.2987757 856.379422,53.9881784 C860.50507,51.6775811 865.112616,50.5222998 870.2022,50.5222998 C878.916184,50.5222998 886.184155,53.6993234 892.00633,60.0534659 C897.828505,66.4076083 900.739549,74.3212852 900.739549,83.794734 L900.739549,163.163353 L864.071596,163.163353 L879.999999,98.9999991 C879.999999,77.9999991 865.626893,78.9999991 860.999999,78.9999991 C856.379424,78.9999991 851.309152,83.7562073 849.38128,87.1450833 C847.453407,90.5339593 846.489485,95.2706126 846.489485,101.355185 L846.489485,163.163353 L810.168547,163.163353 L810.168547,53.0639441 L841.746942,53.0639441 L845.332768,64.5013434 Z M1016.34366,153.805481 C1002.23163,161.738532 989.08374,165.704997 976.899585,165.704997 C961.013915,165.704997 948.11664,160.352194 938.207375,149.646427 C928.29811,138.940659 923.343552,125.231321 923.343552,108.518001 C923.343552,92.3438203 928.028212,78.6344822 937.397673,67.3895755 C946.767134,56.1446688 959.278839,50.5222998 974.933165,50.5222998 C988.813847,50.5222998 999.918227,55.3359719 1008.24664,64.9634605 C1016.57505,74.5909491 1020.73919,87.4915903 1020.73919,103.665771 L1020.73919,112.792585 L961.515238,112.792585 C963.211766,120.186496 966.103532,125.731846 970.190622,129.428802 C974.277712,133.125757 979.560003,134.974207 986.037655,134.974207 C991.050124,134.974207 995.638392,133.857435 999.802597,131.623858 C1003.9668,129.390281 1009.48043,125.385306 1016.34366,119.608812 L1016.34366,153.805481 Z M988.582434,93.2681354 L988.582434,89.5711983 C988.582434,84.5649042 987.271501,80.2903634 984.649594,76.7474476 C982.027687,73.2045318 978.750353,71.4331005 974.817493,71.4331005 C970.190599,71.4331005 966.624088,73.2430412 964.117853,76.8629769 C961.611619,80.4829126 960.165736,85.9512441 959.780162,93.2681354 L988.582434,93.2681354 Z M1040.10438,122.612574 C1051.90296,132.317082 1062.12053,137.169264 1070.7574,137.169264 C1074.07334,137.169264 1076.92655,136.302803 1079.31711,134.569855 C1081.70768,132.836907 1082.90294,130.545599 1082.90294,127.695862 C1082.90294,125.539305 1081.9583,123.71011 1080.06898,122.208221 C1078.17967,120.706333 1074.65171,118.954157 1069.48501,116.951639 C1057.14663,112.176405 1049.16536,106.977639 1045.54095,101.355185 C1041.91655,95.7327321 1040.10438,90.1488724 1040.10438,84.603439 C1040.10438,74.3597912 1044.32636,66.1187846 1052.77044,59.880172 C1061.21452,53.6415593 1071.48993,50.5222998 1083.59697,50.5222998 C1094.0846,50.5222998 1104.4564,52.9098812 1114.71268,57.6851155 L1114.71268,90.3799033 C1106.15292,82.985992 1097.94031,79.2890919 1090.07459,79.2890919 C1086.5273,79.2890919 1083.86688,79.8667325 1082.09324,81.0220312 C1080.31959,82.1773298 1079.43279,83.9487611 1079.43279,86.3363783 C1079.43279,89.5712145 1083.24992,92.4209083 1090.88429,94.8855454 C1111.6282,101.740317 1122,112.71549 1122,127.811392 C1122,138.440139 1117.73947,147.412824 1109.21827,154.729715 C1100.69707,162.046607 1089.72764,165.704997 1076.30965,165.704997 C1065.05087,165.704997 1052.98257,162.508719 1040.10438,156.116067 L1040.10438,122.612574 Z" id="Kayla-Jones" fill-opacity="0.4" fill="#870000" sketch:type="MSShapeGroup"></path>
            <g id="K" sketch:type="MSLayerGroup" transform="translate(29.000000, 2.000000)">
                <rect id="Rectangle-1" fill="#772C2C" sketch:type="MSShapeGroup" x="0" y="0" width="24" height="161"></rect>
                <path d="M63.5,3.5 L6,110" id="Line" stroke="#772C2C" stroke-width="6" stroke-linecap="round" sketch:type="MSShapeGroup"></path>
                <path d="M75.5,3.5 L6,130" id="Line-Copy" stroke="#772C2C" stroke-width="6" stroke-linecap="round" sketch:type="MSShapeGroup"></path>
                <path d="M99.5,3.5 L15,153" id="Line-Copy-3" stroke="#772C2C" stroke-width="6" stroke-linecap="round" sketch:type="MSShapeGroup"></path>
                <path d="M87.5,3.5 L4,153" id="Line-Copy-2" stroke="#772C2C" stroke-width="6" stroke-linecap="round" sketch:type="MSShapeGroup"></path>
            </g>
            <path d="M242.000001,95 C242.000001,93 207.999999,90 207.999999,90 C207.999999,90 179.99284,90 160,108 C149.204436,117.719487 147,136 156,151 C162.38223,161.63705 174.999999,166 183,166 C201.999999,166 205.000001,155 207.999999,152 C210.999997,149 242.000001,108 242.000001,95 Z" id="a-1" fill-opacity="0.4" fill="#870000" sketch:type="MSShapeGroup"></path>
            <g id="Y" sketch:type="MSLayerGroup" transform="translate(257.000000, 53.000000)">
                <path d="M0.457142857,3.46666667 L32,115" id="Line" stroke="#772C2C" stroke-width="6" stroke-linecap="round" sketch:type="MSShapeGroup"></path>
                <path d="M22.5,3.5 L47,91" id="Line-Copy-4" stroke="#772C2C" stroke-width="6" stroke-linecap="round" sketch:type="MSShapeGroup"></path>
                <path d="M33.525,3.51351351 L54,79" id="Line-Copy-6" stroke="#772C2C" stroke-width="6" stroke-linecap="round" sketch:type="MSShapeGroup"></path>
                <path d="M11.5,3.5 L40,105" id="Line-Copy-5" stroke="#772C2C" stroke-width="6" stroke-linecap="round" sketch:type="MSShapeGroup"></path>
                <path d="M60,0 L83,2.78311347e-08 L69,61 L60,92 C60,92 53,126 40,144 C36.7837826,148.453224 27,151 21,151 C15,151 6,148 6,148 L6,132 C6,132 11,134 19,134 C27,134 30,117 30,117 C30,117 47,68 49,58 L60,0 Z" id="Path-25" fill="#772C2C" sketch:type="MSShapeGroup"></path>
            </g>
            <g id="L" sketch:type="MSLayerGroup" transform="translate(374.000000, 2.000000)">
                <path d="M0.308602547,0 L18.6986019,0 L18.6986019,161.163353 L0.308602547,161.163353 L0.308602547,0 Z" id="Path" fill-opacity="0.4" fill="#870000" sketch:type="MSShapeGroup"></path>
                <path d="M9.50360224,0 L18.6986019,0 L18.6986019,161.163353 L9.50360224,161.163353 L9.50360224,0 Z" id="Path" fill="#772C2C" sketch:type="MSShapeGroup"></path>
            </g>
            <path d="M526.000001,95 C526.000001,93 491.999999,90 491.999999,90 C491.999999,90 463.99284,90 444,108 C433.204436,117.719487 431,136 440,151 C446.38223,161.63705 458.999999,166 467,166 C485.999999,166 490.000001,154 491.999999,152 C493.999997,150 526.000001,108 526.000001,95 Z" id="a-2" fill-opacity="0.4" fill="#870000" sketch:type="MSShapeGroup"></path>
            <path d="M665.82983,2 L665.829828,122.843632 C665.829828,137.169335 663.063035,147.894197 657.529364,155.018538 C651.995693,162.14288 642.993871,165.704997 630.523628,165.704997 C623.742933,165.704997 617.235122,164.857791 611,163.163353 L611,130.815153 C613.649927,132.586611 615.949093,133.472327 617.897569,133.472327 C621.01513,133.472327 623.353266,132.3363 624.912046,130.064213 C626.470826,127.792125 665.82983,2 665.82983,2 Z" id="J" fill-opacity="0.4" fill="#870000" sketch:type="MSShapeGroup"></path>
            <path d="M734.933886,50.5222998 C750.125522,50.5222998 762.579392,55.5285188 772.29587,65.5411069 C782.012348,75.5536951 786.870514,89.5711082 786.870514,107.593767 C786.870514,124.692187 782.205132,138.651836 772.874229,149.473133 C763.543325,160.29443 750.858114,165.704997 734.818214,165.704997 C718.778314,165.704997 706.285887,160.352194 697.340558,149.646427 C688.395229,138.940659 683.922632,125.30834 683.922632,108.74906 C683.922632,91.4966001 688.607292,77.479187 697.976753,66.6963998 C707.346214,55.9136126 719.665135,50.5222998 734.933886,50.5222998 L734.933886,50.5222998 Z" id="O" fill-opacity="0.4" fill="#870000" sketch:type="MSShapeGroup"></path>
            <g id="N" sketch:type="MSLayerGroup" transform="translate(809.000000, 56.000000)">
                <path d="M3,0.468468468 L3,103.535792" id="Line" stroke="#772C2C" stroke-width="6" stroke-linecap="round" sketch:type="MSShapeGroup"></path>
                <path d="M25,0.468468468 L25,103.535792" id="Line-Copy-8" stroke="#772C2C" stroke-width="6" stroke-linecap="round" sketch:type="MSShapeGroup"></path>
                <path d="M36,0.468468468 L36,103.535792" id="Line-Copy-9" stroke="#772C2C" stroke-width="6" stroke-linecap="round" sketch:type="MSShapeGroup"></path>
                <path d="M14,0.468468468 L14,103.535792" id="Line-Copy-7" stroke="#772C2C" stroke-width="6" stroke-linecap="round" sketch:type="MSShapeGroup"></path>
                <path d="M55,108 L62,78 L92,78 L92,108 L55,108 Z" id="Path-40" fill="#772C2C" sketch:type="MSShapeGroup"></path>
            </g>
            <g id="E" sketch:type="MSLayerGroup" transform="translate(923.000000, 50.000000)">
                <path d="M0,63 C0,63 0,0 51,0 C102,0 99,63 99,63 L0,63 Z" id="Path-41" fill-opacity="0.4" fill="#870000" sketch:type="MSShapeGroup"></path>
                <g id="e-lines" transform="translate(4.000000, 7.000000)" stroke="#772C2C" stroke-width="6" stroke-linecap="round" sketch:type="MSShapeGroup">
                    <path d="M92,57 L0,57" id="Line"></path>
                    <path d="M92,46 L0,46" id="Line-Copy-10"></path>
                    <path d="M91,35 L2,35" id="Line-Copy-11"></path>
                    <path d="M89,24 L5,24" id="Line-Copy-12"></path>
                    <path d="M84,12 L11,12" id="Line-Copy-13"></path>
                    <path d="M75,1 L21,1" id="Line-Copy-14"></path>
                </g>
            </g>
            <g id="S" sketch:type="MSLayerGroup" transform="translate(1040.000000, 50.000000)">
                <path d="M73.5,40.5 L16,11" id="Line" stroke="#772C2C" stroke-width="6" stroke-linecap="round" sketch:type="MSShapeGroup"></path>
                <path d="M73.5,27.5 L29,5" id="Line-Copy-15" stroke="#772C2C" stroke-width="6" stroke-linecap="round" sketch:type="MSShapeGroup"></path>
                <path d="M73.5,14.5 L51,3" id="Line-Copy-16" stroke="#772C2C" stroke-width="6" stroke-linecap="round" sketch:type="MSShapeGroup"></path>
                <path d="M20,112 L0.5,101.5" id="Line" stroke="#772C2C" stroke-width="6" stroke-linecap="round" sketch:type="MSShapeGroup"></path>
                <path d="M44,113 L0.5,88.5" id="Line-Copy-15" stroke="#772C2C" stroke-width="6" stroke-linecap="round" sketch:type="MSShapeGroup"></path>
                <path d="M59,108 L0.5,75.5" id="Line-Copy-16" stroke="#772C2C" stroke-width="6" stroke-linecap="round" sketch:type="MSShapeGroup"></path>
                <path d="M0.104381372,72.6125739 C11.9029617,82.3170824 22.1205332,87.1692638 30.7574025,87.1692638 C34.0733433,87.1692638 36.926552,86.3028029 39.317114,84.5698549 C41.707676,82.836907 42.9029391,80.5455991 42.9029391,77.6958624 C42.9029391,75.539305 41.9582957,73.7101096 40.0689806,72.2082214 C38.1796654,70.7063332 34.6517115,68.9541565 29.4850129,66.9516389 C17.1466283,62.1764046 9.16535542,56.9776387 5.54095493,51.3551854 C1.91655443,45.7327321 0.104381372,40.1488724 0.104381372,34.603439 C0.104381372,24.3597912 4.32635904,16.1187846 12.770441,9.88017195 C21.214523,3.64155935 31.4899299,0.522299839 43.5969698,0.522299839 C54.0845967,0.522299839 64.4563958,2.90988119 74.712678,7.68511553 L74.712678,40.3799033 C66.1529237,32.985992 57.9403096,29.2890919 50.0745893,29.2890919 C46.5273038,29.2890919 43.8668795,29.8667325 42.0932367,31.0220312 C40.3195939,32.1773298 39.4327858,33.9487611 39.4327858,36.3363783 C39.4327858,39.5712145 43.2499163,42.4209083 50.8842918,44.8855454 C71.628201,51.7403173 82,62.7154896 82,77.8113917 C82,88.4401391 77.7394655,97.4128239 69.2182686,104.729715 C60.6970717,112.046607 49.7276411,115.704997 36.3096478,115.704997 C25.0508718,115.704997 12.9825703,112.508719 0.104381372,106.116067 L0.104381372,72.6125739 Z" id="Path" fill-opacity="0.4" fill="#870000" sketch:type="MSShapeGroup"></path>
            </g>
        </g>
    </g>
</svg>