<svg xmlns="http://www.w3.org/2000/svg" xmlns:xlink="http://www.w3.org/1999/xlink" xmlns:sketch="http://www.bohemiancoding.com/sketch/ns" width="377" height="377" viewBox="0 0 377 377" version="1.1">
  <title>
    resume-icon
  </title>
  <style>
    #circle-bkgrd-top {
      fill-opacity: 1;
      fill: #D2B57E;
    }
  </style>
  <g id="Page" stroke="none" stroke-width="1" fill="none" fill-rule="evenodd" sketch:type="MSPage">
    <g id="resume-icon" sketch:type="MSLayerGroup">
      <g id="Page-1" sketch:type="MSShapeGroup">
        <g id="icon">
          <g id="resume-icon">
            <path d="M188.5 377C292.61 377 377 292.61 377 188.5 377 84.39 292.61 0 188.5 0 84.39 0 0 84.39 0 188.5 0 292.61 84.39 377 188.5 377L188.5 377ZM80.91 250.29L98.48 250.29C102.45 250.29 105.67 251.32 108.14 253.38 110.61 255.44 111.84 258.36 111.84 262.15 111.84 265.26 110.96 267.91 109.19 270.09 107.42 272.28 104.78 274 101.25 275.26 105.67 275.96 108.4 278.77 109.45 283.68L112.78 299.21 100.3 299.21 98.48 285.67C98.15 283.38 97.61 281.71 96.85 280.66 96.09 279.61 94.93 279.08 93.36 279.08L92.31 279.08 92.31 299.21 80.91 299.21 80.91 250.29 80.91 250.29ZM92.31 259.79L92.31 270.27 94.8 270.27C96.58 270.27 97.93 269.74 98.87 268.69 99.81 267.64 100.27 266.31 100.27 264.69 100.27 263.05 99.86 261.83 99.04 261.01 98.22 260.19 96.98 259.78 95.32 259.78L92.31 259.78 92.31 259.79ZM118.74 250.29L146.62 250.29 146.62 260.14 130.14 260.14 130.14 269.12 145.5 269.12 145.5 278.69 130.14 278.69 130.14 289.21 146.62 289.21 146.62 299.2 118.74 299.2 118.74 250.29 118.74 250.29ZM152.67 284.58C156.43 288.09 159.99 289.84 163.33 289.84 165.04 289.84 166.5 289.29 167.71 288.19 168.92 287.09 169.53 285.76 169.53 284.19 169.53 282.93 169.1 281.81 168.23 280.82 167.34 279.84 165.68 278.74 163.25 277.52 159.81 275.84 157.2 273.96 155.4 271.88 153.58 269.8 152.67 267.16 152.67 263.96 152.67 259.89 154.1 256.46 156.95 253.67 159.8 250.88 163.58 249.48 168.28 249.48 171.51 249.48 174.86 250.35 178.34 252.08L178.34 263.76C175.25 260.79 172.3 259.31 169.47 259.31 168.07 259.31 166.85 259.73 165.82 260.57 164.79 261.41 164.28 262.43 164.28 263.62 164.28 264.79 164.7 265.79 165.54 266.64 166.36 267.48 167.88 268.39 170.1 269.37 173.77 271.01 176.55 272.88 178.45 274.98 180.34 277.11 181.29 279.97 181.29 283.57 181.29 288.11 179.66 291.97 176.4 295.18 173.14 298.38 169.16 299.98 164.46 299.98 160.81 299.98 156.89 298.88 152.68 296.68L152.68 284.58 152.67 284.58ZM187.72 250.29L199.08 250.29 199.08 282.69C199.08 285.26 199.44 287.2 200.15 288.49 200.86 289.79 201.93 290.44 203.36 290.44 204.86 290.44 205.97 289.85 206.71 288.67 207.45 287.49 207.82 285.72 207.82 283.36L207.82 250.3 219.25 250.3 219.25 284C219.25 289.1 217.85 293.04 215.06 295.82 212.27 298.6 208.33 299.99 203.26 299.99 198.35 299.99 194.54 298.65 191.81 295.96 189.09 293.27 187.73 289.29 187.73 284L187.73 250.29 187.72 250.29ZM227.15 250.29L239.63 250.29 246.47 269.01 253.31 250.29 265.83 250.29 265.83 299.2 254.68 299.2 254.68 280.9C254.68 276.27 254.87 271.57 255.24 266.81L254.4 266.81C253.91 269.17 252.94 272.42 251.49 276.56L246.48 290.83 241.5 276.56C240.05 272.4 239.08 269.15 238.59 266.81L237.71 266.81C238.11 271.23 238.31 275.93 238.31 280.9L238.31 299.2 227.16 299.2 227.16 250.29 227.15 250.29ZM274.33 250.29L302.21 250.29 302.21 260.14 285.73 260.14 285.73 269.12 301.09 269.12 301.09 278.69 285.73 278.69 285.73 289.21 302.21 289.21 302.21 299.2 274.33 299.2 274.33 250.29 274.33 250.29Z" id="circle-bkgrd-top" fill="#D2B57E"/>
            <path d="M257.32 41.89L257.32 215.43 228.34 215.43 212 215.43 119.68 215.43 119.68 96.14 166.71 41.89 257.32 41.89Z" id="paper-box" stroke="#F1F1F1" stroke-width="7.2"/>
            <path d="M168.55 42.71L168.55 100.24" id="fold-vertical" stroke="#F1F1F1" stroke-width="7.2"/>
            <path d="M121 97.74L172.04 97.74" id="fold-horizontal" stroke="#F1F1F1" stroke-width="7.2"/>
            <path d="M194.48 65.83L230.38 65.83" id="text-line-1" stroke="#F1F1F1" stroke-width="7.2"/>
            <path d="M194.48 80.79L230.38 80.79" id="text-line-2" stroke="#F1F1F1" stroke-width="7.2"/>
            <g id="lady" transform="translate(156.584656, 109.708995)" stroke="#F1F1F1">
              <path d="M11.07 22.56C11.07 31.69 6.33 49.95 6.33 49.95 6.33 49.95 17.4 53.17 31.63 53.17 45.86 53.17 56.93 49.95 56.93 49.95 56.93 49.95 52.19 31.69 52.19 22.56L52.19 21.38C52.18 9.57 42.62 0 30.81 0L32.44 0C20.64 0 11.07 9.56 11.07 21.38 11.07 21.38 11.07 20.41 11.07 22.56L11.07 22.56Z" id="Rectangle-2323" stroke-width="5.4"/>
              <path d="M24.42 53.17L19.77 62.91 10.28 62.91C4.59 62.91 0 67.58 0 73.34L0 83.78M64.83 83.78L64.83 73.34C64.83 67.59 60.23 62.9 54.56 62.9L43.69 62.9 39.04 53.16" id="Rectangle-2326" stroke-width="5.4"/>
              <path d="M19.42 64.29L31.08 71.38 25.03 77.43 19.42 64.29Z" id="Triangle-105" stroke-width="3.24"/>
              <path d="M44.42 64.29L32.17 71.38 38.22 77.43 44.42 64.29Z" id="Triangle-104" stroke-width="3.24"/>
            </g>
          </g>
        </g>
      </g>
    </g>
  </g>
</svg>
